<svg xmlns="http://www.w3.org/2000/svg" width="116" height="79" viewBox="0 0 116 79">
    <defs>
        <linearGradient id="a" x1="50%" x2="50%" y1="0%" y2="100%">
            <stop offset="0%" stop-color="#61A7FF"/>
            <stop offset="100%" stop-color="#122560"/>
        </linearGradient>
    </defs>
    <g fill="none" fill-rule="evenodd">
        <text fill="#122560" font-family="Poppins-Regular, Poppins" font-size="12" transform="translate(0 62)">
            <tspan x="0" y="15">mejorcontado.com</tspan>
        </text>
        <path fill="#BEDAFF" d="M1 62h22v1H1z"/>
        <path fill="#61A7FF" d="M23 62h22v1H23z"/>
        <path fill="#0163FF" d="M44 62h22v1H44z"/>
        <path fill="#122560" d="M66 62h50v1H66z"/>
        <g>
            <path fill="#BEDAFF" fill-rule="nonzero" d="M8.51 20.45h58.563v3.71H8.51v-3.71zM2 28.4h62.746v3.71H2V28.4zm6.507 7.95H67.07v3.71H8.507v-3.71z"/>
            <path fill="#FFF" d="M43.134 41c6.042 0 10.94-4.925 10.94-11s-4.898-11-10.94-11c-6.043 0-10.941 4.925-10.941 11s4.898 11 10.94 11z"/>
            <path fill="#BEDAFF" fill-rule="nonzero" d="M25.868 47.99a25.097 25.097 0 0 1-3.166-3.738h40.864a25.097 25.097 0 0 1-3.166 3.739H25.868zm5.813 4.206h22.906A24.653 24.653 0 0 1 43.134 55c-4.13 0-8.025-1.012-11.453-2.804zm-11.324-12.15a24.902 24.902 0 0 1-1.291-3.738H34.17a10.997 10.997 0 0 0 4.502 3.739H20.357zm45.554 0H47.596a10.997 10.997 0 0 0 4.502-3.738h15.104a24.902 24.902 0 0 1-1.291 3.739zm-47.557-7.943a25.469 25.469 0 0 1-.034-3.739h13.993a11.147 11.147 0 0 0 .08 3.739H18.353zm49.56 0H53.874a11.114 11.114 0 0 0 .08-3.739h13.993a25.513 25.513 0 0 1-.035 3.739zM18.95 24.159a24.903 24.903 0 0 1 1.208-3.738h17.594a11.021 11.021 0 0 0-3.891 3.738H18.95zm48.368 0H52.407a11.021 11.021 0 0 0-3.891-3.738h17.593c.496 1.201.902 2.45 1.209 3.738zm-41.92-11.682H60.87a25.094 25.094 0 0 1 3.012 3.738H22.386a25.094 25.094 0 0 1 3.013-3.738zm5.43-4.206A24.65 24.65 0 0 1 43.134 5 24.65 24.65 0 0 1 55.44 8.271H30.828z"/>
            <path fill="url(#a)" fill-rule="nonzero" d="M84 58c-16.016 0-29-12.984-29-29S67.984 0 84 0s29 12.984 29 29-12.984 29-29 29zm0-16.24c7.047 0 12.76-5.713 12.76-12.76S91.047 16.24 84 16.24 71.24 21.953 71.24 29 76.953 41.76 84 41.76zm.231-18.544c1.335 0 1.856.97 1.856 1.864H89.8c0-1.518-1.251-3.018-3.712-3.53v-2.062h-3.711v2.035c-2.461.448-3.712 1.881-3.712 4.489 0 2.447 1.913 4.66 5.567 4.66 1.071 0 1.856.816 1.856 1.863 0 1.11-.62 1.864-1.856 1.864-1.236 0-1.855-.684-1.855-1.864h-3.712c0 2.32 1.27 3.318 3.712 3.616v1.976h3.711v-2.004c2.461-.373 3.758-1.629 3.712-4.52 0-2.563-1.856-4.658-5.568-4.658-1.044 0-1.855-.583-1.855-1.865 0-.966.521-1.864 1.855-1.864z" transform="translate(2)"/>
        </g>
        <g>
            <text fill="#122560" font-family="Poppins-Regular, Poppins" font-size="12" transform="translate(0 62)">
                <tspan x="0" y="15">mejorcontado.com</tspan>
            </text>
            <path fill="#BEDAFF" d="M1 62h22v1H1z"/>
            <path fill="#61A7FF" d="M23 62h22v1H23z"/>
            <path fill="#0163FF" d="M44 62h22v1H44z"/>
            <path fill="#122560" d="M66 62h50v1H66z"/>
        </g>
        <g>
            <path fill="#3762AA" fill-rule="nonzero" d="M8.51 20.45h58.563v3.71H8.51v-3.71zM2 28.4h62.746v3.71H2V28.4zm6.507 7.95H67.07v3.71H8.507v-3.71z"/>
            <path fill="#FFF" d="M43.134 41c6.042 0 10.94-4.925 10.94-11s-4.898-11-10.94-11c-6.043 0-10.941 4.925-10.941 11s4.898 11 10.94 11z"/>
            <path fill="#3762AA" fill-rule="nonzero" d="M25.868 47.99a25.097 25.097 0 0 1-3.166-3.738h40.864a25.097 25.097 0 0 1-3.166 3.739H25.868zm5.813 4.206h22.906A24.653 24.653 0 0 1 43.134 55c-4.13 0-8.025-1.012-11.453-2.804zm-11.324-12.15a24.902 24.902 0 0 1-1.291-3.738H34.17a10.997 10.997 0 0 0 4.502 3.739H20.357zm45.554 0H47.596a10.997 10.997 0 0 0 4.502-3.738h15.104a24.902 24.902 0 0 1-1.291 3.739zm-47.557-7.943a25.469 25.469 0 0 1-.034-3.739h13.993a11.147 11.147 0 0 0 .08 3.739H18.353zm49.56 0H53.874a11.114 11.114 0 0 0 .08-3.739h13.993a25.513 25.513 0 0 1-.035 3.739zM18.95 24.159a24.903 24.903 0 0 1 1.208-3.738h17.594a11.021 11.021 0 0 0-3.891 3.738H18.95zm48.368 0H52.407a11.021 11.021 0 0 0-3.891-3.738h17.593c.496 1.201.902 2.45 1.209 3.738zm-41.92-11.682H60.87a25.094 25.094 0 0 1 3.012 3.738H22.386a25.094 25.094 0 0 1 3.013-3.738zm5.43-4.206A24.65 24.65 0 0 1 43.134 5 24.65 24.65 0 0 1 55.44 8.271H30.828z"/>
            <path fill="url(#a)" fill-rule="nonzero" d="M84 58c-16.016 0-29-12.984-29-29S67.984 0 84 0s29 12.984 29 29-12.984 29-29 29zm0-16.24c7.047 0 12.76-5.713 12.76-12.76S91.047 16.24 84 16.24 71.24 21.953 71.24 29 76.953 41.76 84 41.76zm.231-18.544c1.335 0 1.856.97 1.856 1.864H89.8c0-1.518-1.251-3.018-3.712-3.53v-2.062h-3.711v2.035c-2.461.448-3.712 1.881-3.712 4.489 0 2.447 1.913 4.66 5.567 4.66 1.071 0 1.856.816 1.856 1.863 0 1.11-.62 1.864-1.856 1.864-1.236 0-1.855-.684-1.855-1.864h-3.712c0 2.32 1.27 3.318 3.712 3.616v1.976h3.711v-2.004c2.461-.373 3.758-1.629 3.712-4.52 0-2.563-1.856-4.658-5.568-4.658-1.044 0-1.855-.583-1.855-1.865 0-.966.521-1.864 1.855-1.864z" transform="translate(2)"/>
        </g>
    </g>
</svg>
